<svg width="38" height="38" viewBox="0 0 10.054 10.054" version="1.1" id="svg834" xmlns="http://www.w3.org/2000/svg"><g id="layer1"><rect style="fill:#1a1e4f;fill-opacity:1;stroke:none;stroke-width:.06632px;stroke-linejoin:round;stroke-miterlimit:4;stroke-dasharray:none" id="rect1540" width="10.054" height="10.054" x="0" y="0" rx="1.462" ry="1.462"/><g id="g1436" transform="matrix(.48838 0 0 .48838 -52.017 -45.612)" style="fill:#fff"><path d="m122.111 103.473-5.303 3.076-5.317-3.077a.6.6 0 0 0-.829.237c-.165.3-.061.68.231.85l5.616 3.25a.596.596 0 0 0 .599 0l5.602-3.25a.632.632 0 0 0 .23-.85.6.6 0 0 0-.829-.236" id="path11-2" style="fill:#fff;fill-opacity:1;stroke-width:.264583px"/><path d="m122.102 106.38-5.3 2.93-5.315-2.93a.616.616 0 0 0-.828.224c-.165.286-.047.649.246.81l5.313 2.922v1.7c0 .327.258.616.592.616h.007c.335 0 .616-.289.616-.616v-1.693l5.283-2.93a.585.585 0 0 0 .222-.809.625.625 0 0 0-.836-.225m-4.64-10.33c0-.328-.296-.595-.661-.595-.365 0-.661.267-.661.596v5.16c0 .328.296.594.661.594.365 0 .661-.266.661-.595z" id="path13-3" style="fill:#fff;fill-opacity:1;stroke-width:.264583px"/><path style="fill:#fff;fill-opacity:1;stroke-width:.264583px" d="m110.89 101.77 5.606 3.131a.612.612 0 0 0 .598 0l5.608-3.13a.608.608 0 0 0 .317-.524.593.593 0 0 0-.301-.523l-4.684-2.624v1.382l3.146 1.765-4.379 2.44-4.359-2.44 3.154-1.754v-1.382l-4.695 2.613a.607.607 0 0 0-.317.523c0 .217.114.417.305.524" id="path15-1"/></g></g></svg>