<?xml version="1.0" encoding="UTF-8" standalone="no"?>
<svg width="38" height="38" viewBox="0 0 10.054167 10.054167" version="1.1" id="svg834" inkscape:version="1.1 (c68e22c387, 2021-05-23)" sodipodi:docname="pdok-icon.svg"
   xmlns:inkscape="http://www.inkscape.org/namespaces/inkscape"
   xmlns:sodipodi="http://sodipodi.sourceforge.net/DTD/sodipodi-0.dtd"
   xmlns="http://www.w3.org/2000/svg"
   xmlns:svg="http://www.w3.org/2000/svg">
   <sodipodi:namedview id="namedview836" pagecolor="#ffffff" bordercolor="#666666" borderopacity="1.0" inkscape:pageshadow="2" inkscape:pageopacity="0.0" inkscape:pagecheckerboard="0" inkscape:document-units="mm" showgrid="false" inkscape:snap-center="true" inkscape:snap-bbox="true" inkscape:snap-page="true" fit-margin-top="0" fit-margin-left="0" fit-margin-right="0" fit-margin-bottom="0" inkscape:zoom="6.1433221" inkscape:cx="68.855254" inkscape:cy="61.937173" inkscape:window-width="1833" inkscape:window-height="1051" inkscape:window-x="2391" inkscape:window-y="-9" inkscape:window-maximized="1" inkscape:current-layer="layer1" units="px" />
   <defs id="defs831" />
   <g inkscape:label="Laag 1" inkscape:groupmode="layer" id="layer1">
      <rect style="fill:#1a1e4f;fill-opacity:1;stroke:none;stroke-width:0.06632;stroke-linejoin:round;stroke-miterlimit:4;stroke-dasharray:none" id="rect1540" width="10.054167" height="10.054167" x="0" y="0" rx="1.4624243" ry="1.4624243" />
      <g id="g1436" transform="matrix(0.48838492,0,0,0.48838492,-52.016984,-45.612172)" style="fill:#ffffff">
         <path d="m 122.11111,103.47287 -5.30331,3.07658 -5.3168,-3.07711 c -0.29237,-0.16907 -0.66331,-0.0632 -0.82868,0.23681 -0.1651,0.30003 -0.0616,0.6805 0.23072,0.84984 l 5.61604,3.2504 a 0.59610624,0.59610624 0 0 0 0.59849,-2.6e-4 l 5.60282,-3.25041 c 0.29236,-0.1696 0.39529,-0.55033 0.22992,-0.8501 -0.16536,-0.29978 -0.53657,-0.40535 -0.8292,-0.23575" id="path11-2" style="fill:#ffffff;fill-opacity:1;stroke-width:0.264583" />
         <path d="m 122.10211,106.37932 -5.30093,2.93053 -5.31415,-2.93079 c -0.29237,-0.16114 -0.66331,-0.0603 -0.82815,0.22542 -0.1651,0.28575 -0.0466,0.64823 0.24606,0.80963 l 5.31284,2.92152 v 1.70048 c 0,0.32703 0.25797,0.61622 0.59266,0.61622 h 0.007 c 0.33444,0 0.61595,-0.28919 0.61595,-0.61622 v -1.69333 l 5.28241,-2.9292 a 0.58472916,0.58472916 0 0 0 0.22225,-0.80963 c -0.16537,-0.28575 -0.54398,-0.38629 -0.83635,-0.22489 m -4.6392,-10.329344 c 0,-0.32887 -0.29634,-0.59531 -0.66146,-0.59531 -0.36513,0 -0.66146,0.26644 -0.66146,0.59531 v 5.159384 c 0,0.32887 0.29633,0.59531 0.66146,0.59531 0.36512,0 0.66146,-0.26644 0.66146,-0.59531 z" id="path13-3" style="fill:#ffffff;fill-opacity:1;stroke-width:0.264583" />
         <path style="fill:#ffffff;fill-opacity:1;stroke-width:0.264583" d="m 110.88907,101.77054 5.60652,3.13082 a 0.61171666,0.61171666 0 0 0 0.59849,0 l 5.60811,-3.13082 c 0.19129,-0.10689 0.31697,-0.30691 0.31697,-0.52334 a 0.59266666,0.59266666 0 0 0 -0.30163,-0.52335 l -4.68392,-2.623614 v 1.38166 l 3.14616,1.765304 -4.37832,2.43998 -4.35928,-2.43998 3.15384,-1.754194 v -1.38218 l -4.6953,2.613024 c -0.19103,0.10663 -0.31697,0.30665 -0.31697,0.52335 0,0.21669 0.1143,0.41645 0.30533,0.52334" id="path15-1" />
      </g>
   </g>
</svg>
